<?xml version="1.0" encoding="UTF-8"?>
<svg id="Layer_1" data-name="Layer 1" xmlns="http://www.w3.org/2000/svg" version="1.1" viewBox="0 0 210.03 186.34">
  <defs>
    <style>
      .cls-1 {
        fill: #0698b0;
      }

      .cls-1, .cls-2 {
        stroke-width: 0px;
      }

      .cls-2 {
        fill: #232f42;
      }
    </style>
  </defs>
  <path class="cls-1" d="M90.07,126.2c-4.31-.3-8.63-.55-12.94-.91-1.28-.11-2.84-.09-3.34-1.65-.51-1.58.86-2.4,1.78-3.29,11.05-10.74,22.14-21.41,32.27-33.07,5.9-6.79,11.01-14.02,15.29-21.89.86-1.57,1.73-3.31.07-4.42-1.57-1.05-2.52.99-3.61,1.85-7.71,6.1-13.36,14.27-20.89,20.59-10.81,9.07-21.29,18.52-32,27.71-4.2,3.61-6.19,2.78-7.31-2.65-2.38-11.57,1.25-22.14,6.11-32.21,10.35-21.45,28.99-33.53,49.98-42.62,14.4-6.23,28.21-13.34,39.58-24.4,3.88-3.77,4.68-1.16,6.19,2.28,10.95,25,10.68,50.15-1.82,74.01-14.36,27.41-37.83,41.38-69.37,40.66Z"/>
  <path class="cls-2" d="M105.66,178.94c-52.96,0-96.04-43.08-96.04-96.04,0-4.42,3.58-8,8-8s8,3.58,8,8c0,44.13,35.9,80.04,80.04,80.04s80.04-35.9,80.04-80.04c0-4.42,3.58-8,8-8s8,3.58,8,8c0,52.96-43.08,96.04-96.04,96.04Z"/>
  <circle class="cls-2" cx="17.62" cy="59.08" r="9.29"/>
  <path class="cls-1" d="M193.7,74.9c-4.42,0-8,3.58-8,8,0,44.13-35.9,80.04-80.04,80.04-.39,0-.77-.02-1.16-.03,5.33,5.49,11.27,10.4,17.71,14.6,45.09-7.87,79.49-47.29,79.49-94.61,0-4.42-3.58-8-8-8Z"/>
</svg>